<svg width="24" height="24" viewBox="0 0 24 24" fill="none" xmlns="http://www.w3.org/2000/svg">
<path d="M20.6453 17.4249H9.71791C9.1933 17.4249 8.76804 17.8446 8.76804 18.3624C8.76804 18.8801 9.1933 19.2999 9.71791 19.2999C10.5202 19.2999 11.1729 19.9426 11.1729 20.7327C11.1729 21.1175 11.0191 21.4763 10.7399 21.7433C10.4954 21.977 10.1826 22.11 9.85004 22.1237H9.71791C9.70637 22.1237 9.69488 22.124 9.68343 22.1243L8.21664 22.1237C8.2099 22.1239 8.20239 22.1238 8.19522 22.124C7.82496 22.1326 7.46852 21.9899 7.19263 21.7235C6.89789 21.4389 6.72886 21.0434 6.72886 20.6384V15.7416C7.37059 15.6141 7.8897 15.1357 8.05882 14.5063C8.29591 14.3949 8.52393 14.2661 8.74192 14.1208C8.88777 14.1613 9.03605 14.1821 9.18323 14.1843C9.19183 14.1845 9.20042 14.1846 9.20907 14.1846H17.0677C17.5924 14.1846 18.0176 13.7649 18.0176 13.2471C18.0176 12.7293 17.5924 12.3096 17.0677 12.3096H11.3193C11.7212 11.6343 11.6031 10.7877 11.0598 10.2447C11.0736 10.0907 11.0805 9.93584 11.0805 9.78101H17.0677C17.5924 9.78101 18.0176 9.36129 18.0176 8.84351C18.0176 8.32573 17.5924 7.90602 17.0677 7.90602H11.5448C11.5162 7.68003 11.4414 7.45649 11.3174 7.2492L10.7005 6.21791C10.2963 5.54226 9.48719 5.23396 8.74197 5.44129C8.52402 5.29593 8.29596 5.16721 8.05887 5.05574C7.88974 4.4264 7.37064 3.94795 6.72891 3.82045V3.74999C6.72891 2.71612 7.58113 1.875 8.62865 1.875H18.2076C19.2552 1.875 20.1074 2.71612 20.1074 3.74999V13.6749C20.1074 14.1926 20.5326 14.6124 21.0572 14.6124C21.5819 14.6124 22.0071 14.1926 22.0071 13.6749V3.74999C22.0071 1.68225 20.3027 0 18.2076 0H8.62865C6.53361 0 4.82916 1.68225 4.82916 3.74999V3.82049C4.18748 3.94804 3.66837 4.42645 3.49925 5.05579C3.26216 5.16726 3.03409 5.29593 2.81615 5.44133C2.07088 5.23424 1.26173 5.54235 0.857604 6.21796L0.240757 7.2492C-0.163461 7.92505 -0.0458191 8.77348 0.498315 9.31742C0.484542 9.4714 0.477655 9.62628 0.477655 9.78106C0.477655 9.93584 0.484589 10.0906 0.498315 10.2447C-0.0459141 10.7887 -0.163556 11.6372 0.24071 12.3129L0.857557 13.3441C1.26168 14.0197 2.07088 14.3278 2.8161 14.1208C3.03405 14.2661 3.26211 14.3949 3.4992 14.5063C3.66837 15.1356 4.18748 15.6141 4.82916 15.7416V20.6384C4.82916 21.5448 5.20645 22.4288 5.86428 23.0639C6.50578 23.6832 7.34281 24.0149 8.22557 23.9987L9.73202 23.9994C9.77301 24.0002 9.8139 24.0002 9.8547 23.9994L11.0525 24H11.0529C11.069 24 11.085 23.9995 11.1009 23.9988H20.6314C20.6617 23.9996 20.6919 24 20.722 24C21.5712 24 22.3726 23.6792 22.9889 23.0902C23.6315 22.476 24 21.6167 24 20.7328C24 18.9088 22.4951 17.4249 20.6453 17.4249ZM3.57448 12.338C3.29612 12.1039 2.90643 12.0484 2.57231 12.1951L2.4171 12.2632L1.95295 11.4872L2.08759 11.3866C2.37878 11.1691 2.51779 10.8061 2.44522 10.4529C2.40015 10.2333 2.37726 10.0073 2.37726 9.78106C2.37726 9.55479 2.4001 9.32881 2.44522 9.10925C2.51779 8.75609 2.37878 8.39309 2.08769 8.17555L1.9529 8.07486L2.41706 7.29889L2.57227 7.367C2.90634 7.51377 3.29616 7.45808 3.57448 7.22403C3.89957 6.95061 4.26793 6.74267 4.6693 6.60608C5.01486 6.48842 5.26135 6.18547 5.3032 5.82711L5.32248 5.66183H6.23549L6.25478 5.82711C6.29662 6.18552 6.54311 6.48842 6.88867 6.60608C7.29004 6.74272 7.6584 6.95066 7.9835 7.22403C8.26186 7.45817 8.65159 7.51372 8.98571 7.367L9.14091 7.29889L9.60507 8.07486L9.47028 8.17555C9.17915 8.39314 9.04013 8.75614 9.11275 9.10934C9.15782 9.32872 9.18072 9.5547 9.18072 9.78106C9.18072 10.0074 9.15787 10.2334 9.11275 10.4528C9.04018 10.806 9.17915 11.169 9.47028 11.3866L9.60507 11.4873L9.14091 12.2632L8.98575 12.1951C8.65173 12.0483 8.26195 12.1039 7.98359 12.338C7.6584 12.6115 7.29004 12.8194 6.88877 12.956C6.54316 13.0736 6.29662 13.3766 6.25478 13.735L6.23549 13.9003H5.32248L5.3032 13.735C5.26135 13.3766 5.01481 13.0736 4.6692 12.956C4.26802 12.8194 3.89971 12.6115 3.57448 12.338ZM21.6673 21.7433C21.398 22.0006 21.0463 22.1359 20.6758 22.1243C20.6657 22.1239 20.6555 22.1237 20.6453 22.1237H12.7579C12.9626 21.6914 13.0726 21.2158 13.0726 20.7327C13.0726 20.2197 12.9535 19.7336 12.7412 19.2999H20.6452C21.4475 19.2999 22.1002 19.9426 22.1002 20.7327C22.1003 21.1175 21.9465 21.4764 21.6673 21.7433Z" fill="black"/>
</svg>
